<svg width="32" height="32" viewBox="0 0 32 32" fill="none" xmlns="http://www.w3.org/2000/svg">
<path fill-rule="evenodd" clip-rule="evenodd" d="M21.6576 5.84131C22.2487 5.84117 22.8341 5.9575 23.3803 6.18365C23.9264 6.4098 24.4227 6.74134 24.8407 7.15933C25.2586 7.57732 25.5902 8.07356 25.8163 8.61972C26.0425 9.16587 26.1588 9.75123 26.1587 10.3424C26.1585 10.9335 26.0419 11.5188 25.8155 12.0648C25.5891 12.6109 25.257 13.1073 24.8388 13.5251L21.3033 17.0606C20.8854 17.4785 20.3894 17.81 19.8434 18.0361C19.2974 18.2623 18.7123 18.3787 18.1213 18.3787C17.5304 18.3787 16.9452 18.2623 16.3993 18.0361C15.8533 17.81 15.3572 17.4785 14.9393 17.0606C14.5488 16.6701 13.9157 16.6701 13.5251 17.0606C13.1346 17.4512 13.1346 18.0843 13.5251 18.4748C14.1287 19.0784 14.8453 19.5572 15.6339 19.8839C16.4225 20.2105 17.2677 20.3787 18.1213 20.3787C18.9749 20.3787 19.8202 20.2105 20.6088 19.8839C21.3974 19.5572 22.1139 19.0784 22.7175 18.4748L26.2531 14.9393C26.8569 14.3359 27.3361 13.6194 27.663 12.8308C27.99 12.0421 28.1585 11.1967 28.1587 10.3428C28.1589 9.48898 27.9908 8.64346 27.6642 7.85457C27.3375 7.06568 26.8586 6.34888 26.2549 5.74511C25.6511 5.14135 24.9343 4.66246 24.1454 4.3358C23.3565 4.00914 22.511 3.84111 21.6572 3.84131C20.8033 3.84151 19.9579 4.00993 19.1691 4.33696C18.3805 4.66393 17.6637 5.14337 17.0603 5.74725L14.5858 8.2218C14.1953 8.61232 14.1953 9.24549 14.5858 9.63601C14.9763 10.0265 15.6095 10.0265 16 9.63601L18.4752 7.16081C18.893 6.74263 19.3891 6.41086 19.9351 6.18445C20.4812 5.95805 21.0665 5.84145 21.6576 5.84131ZM12.1566 13.9639C12.7025 13.7377 13.2877 13.6213 13.8787 13.6213C14.4696 13.6213 15.0548 13.7377 15.6007 13.9639C16.1467 14.19 16.6428 14.5215 17.0606 14.9394C17.4512 15.3299 18.0843 15.3299 18.4748 14.9394C18.8654 14.5488 18.8654 13.9157 18.4748 13.5251C17.8713 12.9216 17.1547 12.4428 16.3661 12.1161C15.5775 11.7895 14.7322 11.6213 13.8787 11.6213C13.0251 11.6213 12.1798 11.7895 11.3912 12.1161C10.6026 12.4428 9.88604 12.9216 9.28246 13.5251L5.74725 17.0604C5.14321 17.6638 4.66399 18.3804 4.33696 19.1691C4.00993 19.9579 3.84151 20.8033 3.84131 21.6572C3.84111 22.511 4.00914 23.3565 4.3358 24.1454C4.66246 24.9343 5.14135 25.6511 5.74511 26.2549C6.34888 26.8586 7.06568 27.3375 7.85457 27.6642C8.64346 27.9909 9.48898 28.1589 10.3428 28.1587C11.1967 28.1585 12.0421 27.9901 12.8308 27.663C13.6194 27.3361 14.3362 26.8566 14.9396 26.2527L17.4142 23.7782C17.8047 23.3877 17.8047 22.7545 17.4142 22.364C17.0237 21.9735 16.3905 21.9735 16 22.364L13.5248 24.8392C13.107 25.2574 12.6109 25.5891 12.0648 25.8155C11.5188 26.0419 10.9335 26.1585 10.3424 26.1587C9.75123 26.1588 9.16587 26.0425 8.61972 25.8163C8.07356 25.5902 7.57732 25.2587 7.15933 24.8407C6.74134 24.4227 6.4098 23.9264 6.18365 23.3803C5.9575 22.8341 5.84117 22.2488 5.84131 21.6576C5.84145 21.0665 5.95805 20.4812 6.18445 19.9352C6.41086 19.3891 6.74296 18.8927 7.16114 18.4749L10.6967 14.9394C11.1145 14.5215 11.6106 14.19 12.1566 13.9639Z" fill="black"/>
</svg>
