<svg width="32" height="32" viewBox="0 0 32 32" fill="none" xmlns="http://www.w3.org/2000/svg">
<path fill-rule="evenodd" clip-rule="evenodd" d="M16 5C9.92487 5 5 9.92487 5 16C5 22.0751 9.92487 27 16 27C22.0751 27 27 22.0751 27 16C27 9.92487 22.0751 5 16 5ZM3 16C3 8.8203 8.8203 3 16 3C23.1797 3 29 8.8203 29 16C29 23.1797 23.1797 29 16 29C8.8203 29 3 23.1797 3 16Z" fill="#0077CC" />
<path fill-rule="evenodd" clip-rule="evenodd" d="M12.5002 18.9385C13.5644 18.3245 14.7714 18.0013 16.0001 18.0013C17.2287 18.0014 18.4357 18.3246 19.4999 18.9386C20.5641 19.5526 21.4481 20.4357 22.063 21.4994C22.3394 21.9775 22.1759 22.5892 21.6978 22.8656C21.2197 23.1421 20.608 22.9786 20.3316 22.5004C19.8922 21.7405 19.2607 21.1096 18.5004 20.6709C17.7401 20.2323 16.8778 20.0014 16 20.0013C15.1223 20.0013 14.26 20.2322 13.4997 20.6709C12.7394 21.1095 12.1078 21.7405 11.6685 22.5004C11.392 22.9785 10.7803 23.142 10.3022 22.8655C9.8241 22.5891 9.66061 21.9774 9.93705 21.4993C10.552 20.4356 11.436 19.5525 12.5002 18.9385Z" fill="#0077CC" />
<path d="M11.5 15C12.3284 15 13 14.3284 13 13.5C13 12.6716 12.3284 12 11.5 12C10.6716 12 10 12.6716 10 13.5C10 14.3284 10.6716 15 11.5 15Z" fill="#0077CC" />
<path d="M20.5 15C21.3284 15 22 14.3284 22 13.5C22 12.6716 21.3284 12 20.5 12C19.6716 12 19 12.6716 19 13.5C19 14.3284 19.6716 15 20.5 15Z" fill="#0077CC" />
</svg>
