<svg width="32" height="32" viewBox="0 0 32 32" fill="none"  xmlns="http://www.w3.org/2000/svg">
<path fill-rule="evenodd" clip-rule="evenodd" d="M16 5.72754C9.92487 5.72754 5 10.6524 5 16.7275C5 22.8027 9.92487 27.7275 16 27.7275C22.0751 27.7275 27 22.8027 27 16.7275C27 10.6524 22.0751 5.72754 16 5.72754ZM3 16.7275C3 9.54784 8.8203 3.72754 16 3.72754C23.1797 3.72754 29 9.54784 29 16.7275C29 23.9072 23.1797 29.7275 16 29.7275C8.8203 29.7275 3 23.9072 3 16.7275Z" fill="#0077CC" />
<path fill-rule="evenodd" clip-rule="evenodd" d="M21.6978 18.8614C22.1759 19.1378 22.3394 19.7495 22.063 20.2276C21.448 21.2912 20.5641 22.1744 19.4999 22.7884C18.4357 23.4024 17.2287 23.7256 16 23.7256C14.7714 23.7256 13.5644 23.4024 12.5002 22.7885C11.436 22.1745 10.552 21.2913 9.93702 20.2277C9.66058 19.7496 9.82407 19.1379 10.3022 18.8615C10.7803 18.585 11.392 18.7485 11.6684 19.2266C12.1078 19.9865 12.7393 20.6175 13.4996 21.0561C14.2599 21.4947 15.1223 21.7256 16 21.7256C16.8778 21.7256 17.7401 21.4947 18.5004 21.056C19.2607 20.6174 19.8922 19.9864 20.3315 19.2266C20.608 18.7484 21.2197 18.5849 21.6978 18.8614Z" fill="#0077CC" />
<path d="M11.5 15.7275C12.3284 15.7275 13 15.056 13 14.2275C13 13.3991 12.3284 12.7275 11.5 12.7275C10.6716 12.7275 10 13.3991 10 14.2275C10 15.056 10.6716 15.7275 11.5 15.7275Z" fill="#0077CC" />
<path d="M20.5 15.7275C21.3284 15.7275 22 15.056 22 14.2275C22 13.3991 21.3284 12.7275 20.5 12.7275C19.6716 12.7275 19 13.3991 19 14.2275C19 15.056 19.6716 15.7275 20.5 15.7275Z" fill="#0077CC" />
</svg>
